# xmcd CD database file
#
# Track frame offsets:
#	150
#	20405
#	40972
#	61162
#
# Disc length: 1088 seconds
#
# Revision: 0
# Processed by: cddbd v1.5.1PL0 Copyright (c) Steve Scherf et al.
# Submitted via: CDex 1.51
#
DISCID=2a043e04
DTITLE=DEEN - Memories
DYEAR=1993
DGENRE=JPop
TTITLE0=Memories
TTITLE1=FOREVER
TTITLE2=Memories（Original Karaoke）
TTITLE3=FOREVER（Original Karaoke）
EXTD=YEAR: 1993
EXTT0=
EXTT1=
EXTT2=
EXTT3=
PLAYORDER=
